<svg xmlns="http://www.w3.org/2000/svg" viewBox="0 0 100 100" role="img" aria-label="Ante">
  <rect width="100" height="100" rx="22" fill="#16140f"/>
  <g transform="translate(14 14) scale(0.72)">
    <circle cx="50" cy="50" r="42" fill="#E2552F"/>
    <g fill="#F4EFE4">
      <rect x="48.3" y="11" width="3.4" height="8" rx="1.7" transform="rotate(0 50 50)"/>
      <rect x="48.3" y="11" width="3.4" height="8" rx="1.7" transform="rotate(45 50 50)"/>
      <rect x="48.3" y="11" width="3.4" height="8" rx="1.7" transform="rotate(90 50 50)"/>
      <rect x="48.3" y="11" width="3.4" height="8" rx="1.7" transform="rotate(135 50 50)"/>
      <rect x="48.3" y="11" width="3.4" height="8" rx="1.7" transform="rotate(180 50 50)"/>
      <rect x="48.3" y="11" width="3.4" height="8" rx="1.7" transform="rotate(225 50 50)"/>
      <rect x="48.3" y="11" width="3.4" height="8" rx="1.7" transform="rotate(270 50 50)"/>
      <rect x="48.3" y="11" width="3.4" height="8" rx="1.7" transform="rotate(315 50 50)"/>
    </g>
    <circle cx="50" cy="50" r="28" fill="none" stroke="#F4EFE4" stroke-width="2.4"/>
    <g stroke="#F4EFE4" stroke-width="3.6" stroke-linecap="round">
      <line x1="50" y1="24" x2="50" y2="76"/>
      <line x1="50" y1="24" x2="50" y2="76" transform="rotate(60 50 50)"/>
      <line x1="50" y1="24" x2="50" y2="76" transform="rotate(120 50 50)"/>
    </g>
    <circle cx="50" cy="50" r="7.5" fill="#F4EFE4"/>
    <circle cx="50" cy="50" r="3" fill="#E2552F"/>
  </g>
</svg>
